<?xml version="1.0" encoding="UTF-8" standalone="no"?>
<!DOCTYPE svg PUBLIC "-//W3C//DTD SVG 1.1//EN" "http://www.w3.org/Graphics/SVG/1.1/DTD/svg11.dtd">
<svg viewBox="0 0 700 460" version="1.1" xmlns="http://www.w3.org/2000/svg">
	<g id="CarpDiet">
		<title>Carp Diet, by Adam Stanislav</title>
		<path d="m155.742 178.437 0.527 0.395 9.286-12.895c-5.39 11.696-7.786 21.892-7.786 31.189 0 16.194 11.079 29.09 24.867 29.09 14.411 0 31.224-14.695 47.124-41.386-3.292 12.596-4.191 16.794-4.191 22.792 0 10.796 7.185 18.594 17.063 18.594 9.3 0 18.3-5.099 27.9-15.595 3.861-4.156 12.131-14.777 24.52-31.865l0.099 0.073c12-16.495 22.2-30.291 22.8-30.291 15-17.395 23.4-26.992 24.9-28.791 2.4 1.499 3.9 2.399 4.8 2.699 10.2 5.698 10.8 5.998 10.8 8.697 0 2.4-2.1 7.198-6.9 14.996-18 29.391-24.3 44.387-24.3 57.583 0 12.596 8.4 22.494 18.6 22.494 9.3 0 18.3-5.099 27.6-15.296 4.156-4.749 12.427-15.374 24.522-32.166l0.096 0.072c10.2-14.397 12.3-17.397 23.4-31.793 13.2-16.797 26.4-33.593 39.3-50.39l-83.345 157.089c-14.374-12.396-29.912-17.848-50.093-17.848-26.1 0-52.2 9.3-74.4 26.4-24.895 19.2-37.763 41.1-37.763 64.5 0 27.3 17.363 47.098 41.063 47.098 16.8 0 34.2-11.398 46.8-30.598 11.4-17.4 19.8-44.7 19.8-65.1 0-1.8 0-2.4-0.3-9.3h-3c0.3 5.1 0.3 7.2 0.3 9.3 0 19.2-6.6 42.6-16.2 59.1-12.6 21.3-29.7 33.3-47.4 33.3-16.5 0-25.8-9.9-25.8-27.6 0-17.7 7.5-39.6 20.7-60.3 18.9-29.7 43.5-43.8 76.2-43.8 20.334 0 34.366 4.832 48.601 17.66l-26.069 49.135 0.404-0.005c-9.433 14.156-18.448 30.353-27.136 48.71-26.1 56.4-27.3 58.2-38.1 71.686-23.7-10.189-33-12.586-49.2-12.586-15.875 0-25.463 5.394-25.463 14.684 0 11.088 15.873 19.179 37.763 19.179 10.2 0 19.2-1.199 26.1-3.596l13.2-4.795 1.8-0.599c16.2 7.492 21.9 8.99 33.9 8.99 20.7 0 38.4-8.99 53.7-26.671 4.972-5.76 9.633-12.953 13.8-21.057l0.437 0.328c18.275-25.8 30.868-41.4 42.277-51.9-2.402 3.9-4.504 7.8-6.605 12-1.501 2.4-5.705 10.2-11.109 19.8-13.772 24.9-18.263 36.3-18.263 46.2 0 12.6 7.185 21.3 17.364 21.3 9.005 0 27.313-12.1 36.62-22.6 3.612-3.867 10.106-12.386 19.857-25.558-1.428 5.228-2.141 9.981-2.141 14.258 0 20.4 13.18 33.9 33.268 33.9 11.407 0 24.915-4.8 35.121-12.9 9.306-7.2 14.409-12.9 30.574-35.099l-0.152-0.114c9.753-13.77 11.681-16.623 22.863-31.071 13.189-16.797 26.389-33.594 39.289-50.39-47.67 86.982-50.963 93.581-50.963 107.378 0 12.598 8.082 22.196 18.563 22.196 9 0 18.9-6.899 31.8-21.896 1.8-2.399 8.4-11.098 19.5-26.095l-2.4-1.799-1.8 2.399c-17.4 23.996-20.1 27.295-27.3 34.194-6.3 5.698-12.6 8.998-16.8 8.998-2.7 0-4.8-1.8-4.8-4.199 0-6.899 29.7-63.588 69.9-133.774h28.5v-3.899h-26.1l26.1-44.092-28.5 2.4c-9.9 14.397-12.3 18.297-24.9 38.992l-57.572 74.386c-7.791 10.198-8.691 11.697-18.291 25.195l0.138 0.103c-14.548 19.516-19.047 24.865-27.649 31.387-11.407 8.7-23.714 13.5-34.821 13.5-6.004 0-9.005-2.4-9.005-7.2 0-8.1 3.602-21.3 9.605-35.1 16.21 0 24.615-1.199 34.521-5.397 17.709-7.795 29.674-21.586 29.674-34.178 0-12.592-9.273-20.088-25.171-20.088-16.51 0-30.919 5.996-46.528 19.788-8.948 7.832-15.023 16.186-21.392 29.933l-0.476-0.358c-1.498 2.4-1.498 2.4-3.596 5.1-10.509 14.4-10.509 14.4-13.211 17.7-11.71 15-30.618 29.8-37.823 29.8-2.102 0-3.903-1.5-3.903-3.3 0-7.8 7.205-21.6 51.93-98.7l-33.616 2.1c-17.02 17.526-23.395 24.645-37.395 44.186 8.499-20.587 13.881-44.775 13.881-66.049 0-19.663-4.46-33.195-18.482-53.218l4.995-9.177c4.531-3.922 9.827-7.168 15.887-9.905l-1.2-2.7c-3.96 1.789-7.594 3.74-11.062 5.947l26.3-48.311c43.2-50.389 43.8-50.989 57.891-65.086 8.994-9.298 16.788-14.097 21.885-14.097 1.499 0 2.998 1.2 2.998 2.7 0 4.199-2.998 8.998-15.589 25.494-15.589 20.396-21.885 35.693-21.885 52.189 0 12.897 7.195 20.996 18.287 20.996 11.692 0 24.883-10.198 40.176-31.794l9.9-13.797 1.8-2.399-2.4-1.8-1.8 2.4c-26.091 36.292-33.886 43.49-45.877 43.49-2.698 0-4.796-1.499-4.796-3.599 0-2.999 4.197-10.198 14.389-24.595 16.488-23.694 22.484-37.492 22.484-52.188 0-12.298-6.895-21.896-15.889-21.896-12.89 0-21.584 8.399-73.474 69.885l77.372-141.27h-23.983l-16.489 28.794c-21 26.995-30.9 39.892-52.2 67.786-12.9 16.196-13.5 17.096-23.7 31.793l0.045 0.033-5.163 7.169c-11.1 15.295-12.6 17.095-19.2 24.293-7.2 8.097-15.9 13.496-20.7 13.496-2.1 0-3-1.2-3-2.999 0-1.5 0.9-4.499 1.8-6.898l19.2-38.089c11.1-22.194 11.1-22.194 11.1-29.692 0-6.298-3.9-10.796-14.4-16.195-7.5-3.599-10.5-5.098-12.3-6.298-4.2-2.099-4.2-2.099-7.8-4.499 4.8-8.097 6.3-11.097 6.3-13.496 0-2.699-1.8-4.798-4.2-4.798-4.5 0-9.9 6.298-9.9 11.696 0 2.699 0.9 4.799 3 7.498l-1.8 2.099c-4.8 5.399-9.3 10.497-13.8 15.896-7.5 8.397-13.2 15.295-16.8 20.094-5.614 7.384-6.863 8.95-14.923 20.169l-0.096-0.072-1.5 2.399c-17.4 23.692-20.1 27.291-27.6 34.188-6 5.698-12.6 8.997-17.7 8.997-1.8 0-3.6-1.799-3.6-3.599 0-5.998 21.6-48.283 50.1-98.365l-32.1 5.098-8.7 14.395c0.3-0.9 0.3-1.799 0.3-2.099 0-10.197-9-17.394-22.172-17.394-23.619 0-48.059 17.26-72.241 51.273 0.794-3.58 1.213-7.193 1.213-10.799 0-14.998-10.494-26.096-24.585-26.096-21.588 0-39.578 19.497-39.578 42.293 0 5.099 0.6 9.898 2.099 17.397h2.699c1.799-11.998 3.897-19.797 6.296-26.096 7.196-17.397 20.388-29.695 32.081-29.695 10.195 0 17.69 9.599 17.69 22.497 0 30.894-32.981 62.689-64.769 62.689-16.521 0-26.733-9.598-26.733-25.796 0-20.096 5.707-37.193 24.029-74.687 32.094-5.699 45.286-10.498 69.572-25.196 31.828-19.197 48.299-40.193 48.299-61.489 0-13.498-9.264-23.695-21.275-23.695-19.819 0-56.407 22.195-88.788 53.69-18.321 17.397-29.134 30.894-43.821 53.691-23.394-4.8-34.516-15.598-34.516-33.895 0-18.297 10.52-38.993 26.727-53.391 13.182-11.695 24.879-16.495 40.198-16.495 6.007 0 10.812 0.301 17.108 1.201l0.6-3.003c-8.096-1.2-14.104-1.798-20.712-1.798-42.586 0-75.884 26.994-75.884 61.488 0 24.596 17.374 43.493 45.281 48.592-9.886 18.897-14.081 33.894-14.081 48.892 0 30.595 23.668 54.891 53.395 54.891 27.894 0 55.982-22.164 65.378-48.079zm121.789 254.526c-11.1 8.39-19.5 11.387-31.5 11.387-18.593 0-32.363-6.892-32.363-16.182 0-6.621 5.989-11.121 15.266-11.121 11.697 0 23.097 3.6 48.597 15.9zm111.859-160.648c10.096 16.119 15.641 36.962 15.641 58.069 0 28.5-10.8 62.1-27 84.299-11.7 16.482-31.8 28.468-46.8 28.468-7.5 0-19.2-3.895-31.2-10.188 33-20.679 46.2-39.279 59.1-83.379 5.86-20.973 9.888-35.287 13.039-45.638zm115.347 125.534c15.91-35.078 30.319-53.667 41.726-53.667 5.103 0 8.405 3.898 8.405 10.194 0 11.093-13.809 29.382-28.818 38.076-6.304 3.298-14.408 5.397-21.313 5.397zm-24.292-122.665c-9.888 0-18.877 9.89-18.877 20.978 0 7.491 5.693 13.485 12.585 13.485 9.588 0 18.278-9.59 18.278-20.078 0-8.391-5.094-14.385-11.986-14.385zm-243.201-150.033c6.588 0 11.688 5.698 11.688 12.896 0 3.898-0.9 6.897-3.6 12.595-3.897 7.797-16.769 31.189-21.264 37.787-13.51 20.693-28.522 33.588-38.43 33.588-4.803 0-8.106-2.699-8.106-6.598 0-7.797 11.409-31.189 27.021-56.08 14.711-23.692 24.908-34.188 32.691-34.188zm-147.481-5.116c41.685-69.287 73.173-104.082 94.793-104.082 7.808 0 13.813 5.7 13.813 12.599 0 14.997-20.719 45.292-43.234 63.588-18.59 14.997-33.581 21.296-65.372 27.895z"/>
	</g>
</svg>
